<mxfile host="app.diagrams.net" modified="2023-05-10T04:28:31.451Z" agent="Mozilla/5.0 (Windows NT 10.0; Win64; x64) AppleWebKit/537.36 (KHTML, like Gecko) Chrome/113.0.0.0 Safari/537.36" etag="g4n9hW8jxrG4S9bnk_MK" version="21.2.9" type="device">
  <diagram name="Page-1" id="Ww3_mX-kxTyUpbpKNQ0s">
    <mxGraphModel dx="1352" dy="1436" grid="1" gridSize="10" guides="1" tooltips="1" connect="1" arrows="1" fold="1" page="1" pageScale="1" pageWidth="850" pageHeight="1100" math="0" shadow="0">
      <root>
        <mxCell id="0" />
        <mxCell id="1" parent="0" />
        <mxCell id="zx5G4T1PqnVfPelcqfZq-1" value="" style="rounded=0;whiteSpace=wrap;html=1;" vertex="1" parent="1">
          <mxGeometry x="305" y="40" width="240" height="200" as="geometry" />
        </mxCell>
        <mxCell id="zx5G4T1PqnVfPelcqfZq-58" style="edgeStyle=orthogonalEdgeStyle;rounded=0;orthogonalLoop=1;jettySize=auto;html=1;entryX=0.5;entryY=0;entryDx=0;entryDy=0;" edge="1" parent="1" source="zx5G4T1PqnVfPelcqfZq-3" target="zx5G4T1PqnVfPelcqfZq-7">
          <mxGeometry relative="1" as="geometry" />
        </mxCell>
        <mxCell id="zx5G4T1PqnVfPelcqfZq-3" value="Student" style="rounded=1;whiteSpace=wrap;html=1;" vertex="1" parent="1">
          <mxGeometry x="330" y="125" width="50" height="30" as="geometry" />
        </mxCell>
        <mxCell id="zx5G4T1PqnVfPelcqfZq-56" style="edgeStyle=orthogonalEdgeStyle;rounded=0;orthogonalLoop=1;jettySize=auto;html=1;" edge="1" parent="1" source="zx5G4T1PqnVfPelcqfZq-5" target="zx5G4T1PqnVfPelcqfZq-13">
          <mxGeometry relative="1" as="geometry" />
        </mxCell>
        <mxCell id="zx5G4T1PqnVfPelcqfZq-5" value="Loans" style="rounded=1;whiteSpace=wrap;html=1;" vertex="1" parent="1">
          <mxGeometry x="400" y="125" width="50" height="30" as="geometry" />
        </mxCell>
        <mxCell id="zx5G4T1PqnVfPelcqfZq-7" value="" style="rounded=0;whiteSpace=wrap;html=1;" vertex="1" parent="1">
          <mxGeometry x="40" y="280" width="240" height="200" as="geometry" />
        </mxCell>
        <mxCell id="zx5G4T1PqnVfPelcqfZq-9" value="" style="rounded=0;whiteSpace=wrap;html=1;" vertex="1" parent="1">
          <mxGeometry x="570" y="280" width="240" height="340" as="geometry" />
        </mxCell>
        <mxCell id="zx5G4T1PqnVfPelcqfZq-11" value="Welcome Window" style="text;html=1;strokeColor=none;fillColor=none;align=center;verticalAlign=middle;whiteSpace=wrap;rounded=0;" vertex="1" parent="1">
          <mxGeometry x="395" y="10" width="60" height="30" as="geometry" />
        </mxCell>
        <mxCell id="zx5G4T1PqnVfPelcqfZq-57" style="edgeStyle=orthogonalEdgeStyle;rounded=0;orthogonalLoop=1;jettySize=auto;html=1;exitX=1;exitY=0.5;exitDx=0;exitDy=0;entryX=0.5;entryY=0;entryDx=0;entryDy=0;" edge="1" parent="1" source="zx5G4T1PqnVfPelcqfZq-12" target="zx5G4T1PqnVfPelcqfZq-9">
          <mxGeometry relative="1" as="geometry" />
        </mxCell>
        <mxCell id="zx5G4T1PqnVfPelcqfZq-12" value="Items" style="rounded=1;whiteSpace=wrap;html=1;" vertex="1" parent="1">
          <mxGeometry x="470" y="125" width="50" height="30" as="geometry" />
        </mxCell>
        <mxCell id="zx5G4T1PqnVfPelcqfZq-13" value="" style="rounded=0;whiteSpace=wrap;html=1;" vertex="1" parent="1">
          <mxGeometry x="305" y="280" width="240" height="200" as="geometry" />
        </mxCell>
        <mxCell id="zx5G4T1PqnVfPelcqfZq-16" value="Number" style="rounded=0;whiteSpace=wrap;html=1;" vertex="1" parent="1">
          <mxGeometry x="315" y="300" width="220" height="20" as="geometry" />
        </mxCell>
        <mxCell id="zx5G4T1PqnVfPelcqfZq-17" value="Bronco ID" style="rounded=0;whiteSpace=wrap;html=1;" vertex="1" parent="1">
          <mxGeometry x="50" y="320" width="220" height="30" as="geometry" />
        </mxCell>
        <mxCell id="zx5G4T1PqnVfPelcqfZq-18" value="Name" style="rounded=0;whiteSpace=wrap;html=1;" vertex="1" parent="1">
          <mxGeometry x="50" y="360" width="220" height="30" as="geometry" />
        </mxCell>
        <mxCell id="zx5G4T1PqnVfPelcqfZq-19" value="Course" style="rounded=0;whiteSpace=wrap;html=1;" vertex="1" parent="1">
          <mxGeometry x="50" y="400" width="220" height="30" as="geometry" />
        </mxCell>
        <mxCell id="zx5G4T1PqnVfPelcqfZq-21" value="add" style="rounded=1;whiteSpace=wrap;html=1;" vertex="1" parent="1">
          <mxGeometry x="50" y="440" width="40" height="30" as="geometry" />
        </mxCell>
        <mxCell id="zx5G4T1PqnVfPelcqfZq-22" value="update" style="rounded=1;whiteSpace=wrap;html=1;" vertex="1" parent="1">
          <mxGeometry x="100" y="440" width="50" height="30" as="geometry" />
        </mxCell>
        <mxCell id="zx5G4T1PqnVfPelcqfZq-23" value="search" style="rounded=1;whiteSpace=wrap;html=1;" vertex="1" parent="1">
          <mxGeometry x="160" y="440" width="50" height="30" as="geometry" />
        </mxCell>
        <mxCell id="zx5G4T1PqnVfPelcqfZq-24" value="delete" style="rounded=1;whiteSpace=wrap;html=1;" vertex="1" parent="1">
          <mxGeometry x="220" y="440" width="50" height="30" as="geometry" />
        </mxCell>
        <mxCell id="zx5G4T1PqnVfPelcqfZq-26" value="Student" style="rounded=0;whiteSpace=wrap;html=1;" vertex="1" parent="1">
          <mxGeometry x="315" y="330" width="220" height="20" as="geometry" />
        </mxCell>
        <mxCell id="zx5G4T1PqnVfPelcqfZq-27" value="Origination Date" style="rounded=0;whiteSpace=wrap;html=1;" vertex="1" parent="1">
          <mxGeometry x="315" y="360" width="220" height="20" as="geometry" />
        </mxCell>
        <mxCell id="zx5G4T1PqnVfPelcqfZq-28" value="Due Date" style="rounded=0;whiteSpace=wrap;html=1;" vertex="1" parent="1">
          <mxGeometry x="315" y="390" width="220" height="20" as="geometry" />
        </mxCell>
        <mxCell id="zx5G4T1PqnVfPelcqfZq-86" style="edgeStyle=orthogonalEdgeStyle;rounded=0;orthogonalLoop=1;jettySize=auto;html=1;" edge="1" parent="1" source="zx5G4T1PqnVfPelcqfZq-33" target="zx5G4T1PqnVfPelcqfZq-77">
          <mxGeometry relative="1" as="geometry">
            <Array as="points">
              <mxPoint x="290" y="430" />
              <mxPoint x="290" y="490" />
              <mxPoint x="160" y="490" />
            </Array>
          </mxGeometry>
        </mxCell>
        <mxCell id="zx5G4T1PqnVfPelcqfZq-33" value="add" style="rounded=1;whiteSpace=wrap;html=1;" vertex="1" parent="1">
          <mxGeometry x="315" y="420" width="40" height="20" as="geometry" />
        </mxCell>
        <mxCell id="zx5G4T1PqnVfPelcqfZq-34" value="update" style="rounded=1;whiteSpace=wrap;html=1;" vertex="1" parent="1">
          <mxGeometry x="365" y="420" width="50" height="20" as="geometry" />
        </mxCell>
        <mxCell id="zx5G4T1PqnVfPelcqfZq-35" value="search" style="rounded=1;whiteSpace=wrap;html=1;" vertex="1" parent="1">
          <mxGeometry x="425" y="420" width="50" height="20" as="geometry" />
        </mxCell>
        <mxCell id="zx5G4T1PqnVfPelcqfZq-36" value="delete" style="rounded=1;whiteSpace=wrap;html=1;" vertex="1" parent="1">
          <mxGeometry x="485" y="420" width="50" height="20" as="geometry" />
        </mxCell>
        <mxCell id="zx5G4T1PqnVfPelcqfZq-55" style="edgeStyle=orthogonalEdgeStyle;rounded=0;orthogonalLoop=1;jettySize=auto;html=1;entryX=0.5;entryY=0;entryDx=0;entryDy=0;" edge="1" parent="1" source="zx5G4T1PqnVfPelcqfZq-37" target="zx5G4T1PqnVfPelcqfZq-38">
          <mxGeometry relative="1" as="geometry" />
        </mxCell>
        <mxCell id="zx5G4T1PqnVfPelcqfZq-37" value="View Current Loans" style="rounded=1;whiteSpace=wrap;html=1;" vertex="1" parent="1">
          <mxGeometry x="315" y="450" width="220" height="20" as="geometry" />
        </mxCell>
        <mxCell id="zx5G4T1PqnVfPelcqfZq-38" value="" style="rounded=0;whiteSpace=wrap;html=1;" vertex="1" parent="1">
          <mxGeometry x="305" y="520" width="240" height="180" as="geometry" />
        </mxCell>
        <mxCell id="zx5G4T1PqnVfPelcqfZq-49" value="Back" style="rounded=1;whiteSpace=wrap;html=1;" vertex="1" parent="1">
          <mxGeometry x="320" y="530" width="50" height="20" as="geometry" />
        </mxCell>
        <mxCell id="zx5G4T1PqnVfPelcqfZq-50" value="Back" style="rounded=1;whiteSpace=wrap;html=1;" vertex="1" parent="1">
          <mxGeometry x="315" y="280" width="50" height="20" as="geometry" />
        </mxCell>
        <mxCell id="zx5G4T1PqnVfPelcqfZq-51" value="Back" style="rounded=1;whiteSpace=wrap;html=1;" vertex="1" parent="1">
          <mxGeometry x="50" y="290" width="50" height="20" as="geometry" />
        </mxCell>
        <mxCell id="zx5G4T1PqnVfPelcqfZq-52" value="Back" style="rounded=1;whiteSpace=wrap;html=1;" vertex="1" parent="1">
          <mxGeometry x="580" y="290" width="50" height="20" as="geometry" />
        </mxCell>
        <mxCell id="zx5G4T1PqnVfPelcqfZq-59" value="Drop down (Item Type)" style="rounded=0;whiteSpace=wrap;html=1;" vertex="1" parent="1">
          <mxGeometry x="580" y="320" width="220" height="20" as="geometry" />
        </mxCell>
        <mxCell id="zx5G4T1PqnVfPelcqfZq-60" value="Item Specific Information" style="rounded=0;whiteSpace=wrap;html=1;" vertex="1" parent="1">
          <mxGeometry x="580" y="350" width="220" height="40" as="geometry" />
        </mxCell>
        <mxCell id="zx5G4T1PqnVfPelcqfZq-61" value="Code" style="rounded=0;whiteSpace=wrap;html=1;" vertex="1" parent="1">
          <mxGeometry x="580" y="400" width="220" height="20" as="geometry" />
        </mxCell>
        <mxCell id="zx5G4T1PqnVfPelcqfZq-62" value="TItle" style="rounded=0;whiteSpace=wrap;html=1;" vertex="1" parent="1">
          <mxGeometry x="580" y="430" width="220" height="20" as="geometry" />
        </mxCell>
        <mxCell id="zx5G4T1PqnVfPelcqfZq-63" value="Loans" style="rounded=0;whiteSpace=wrap;html=1;" vertex="1" parent="1">
          <mxGeometry x="320" y="560" width="210" height="80" as="geometry" />
        </mxCell>
        <mxCell id="zx5G4T1PqnVfPelcqfZq-67" value="Overdue" style="rounded=1;whiteSpace=wrap;html=1;" vertex="1" parent="1">
          <mxGeometry x="440" y="650" width="80" height="30" as="geometry" />
        </mxCell>
        <mxCell id="zx5G4T1PqnVfPelcqfZq-68" value="All Loans" style="rounded=1;whiteSpace=wrap;html=1;" vertex="1" parent="1">
          <mxGeometry x="330" y="650" width="80" height="30" as="geometry" />
        </mxCell>
        <mxCell id="zx5G4T1PqnVfPelcqfZq-71" value="Description" style="rounded=0;whiteSpace=wrap;html=1;" vertex="1" parent="1">
          <mxGeometry x="580" y="460" width="220" height="20" as="geometry" />
        </mxCell>
        <mxCell id="zx5G4T1PqnVfPelcqfZq-72" value="Description" style="rounded=0;whiteSpace=wrap;html=1;" vertex="1" parent="1">
          <mxGeometry x="580" y="490" width="220" height="20" as="geometry" />
        </mxCell>
        <mxCell id="zx5G4T1PqnVfPelcqfZq-73" value="Status" style="rounded=0;whiteSpace=wrap;html=1;" vertex="1" parent="1">
          <mxGeometry x="580" y="520" width="220" height="20" as="geometry" />
        </mxCell>
        <mxCell id="zx5G4T1PqnVfPelcqfZq-74" value="Location" style="rounded=0;whiteSpace=wrap;html=1;" vertex="1" parent="1">
          <mxGeometry x="580" y="550" width="220" height="20" as="geometry" />
        </mxCell>
        <mxCell id="zx5G4T1PqnVfPelcqfZq-77" value="Receipt Window" style="rounded=0;whiteSpace=wrap;html=1;" vertex="1" parent="1">
          <mxGeometry x="40" y="520" width="240" height="200" as="geometry" />
        </mxCell>
        <mxCell id="zx5G4T1PqnVfPelcqfZq-79" value="add" style="rounded=1;whiteSpace=wrap;html=1;" vertex="1" parent="1">
          <mxGeometry x="580" y="580" width="40" height="30" as="geometry" />
        </mxCell>
        <mxCell id="zx5G4T1PqnVfPelcqfZq-80" value="update" style="rounded=1;whiteSpace=wrap;html=1;" vertex="1" parent="1">
          <mxGeometry x="630" y="580" width="50" height="30" as="geometry" />
        </mxCell>
        <mxCell id="zx5G4T1PqnVfPelcqfZq-81" value="search" style="rounded=1;whiteSpace=wrap;html=1;" vertex="1" parent="1">
          <mxGeometry x="690" y="580" width="50" height="30" as="geometry" />
        </mxCell>
        <mxCell id="zx5G4T1PqnVfPelcqfZq-82" value="delete" style="rounded=1;whiteSpace=wrap;html=1;" vertex="1" parent="1">
          <mxGeometry x="750" y="580" width="50" height="30" as="geometry" />
        </mxCell>
        <mxCell id="zx5G4T1PqnVfPelcqfZq-83" value="Generate Revenue Report" style="rounded=1;whiteSpace=wrap;html=1;" vertex="1" parent="1">
          <mxGeometry x="330" y="90" width="190" height="30" as="geometry" />
        </mxCell>
        <mxCell id="zx5G4T1PqnVfPelcqfZq-84" value="Revenue Report Window" style="rounded=0;whiteSpace=wrap;html=1;" vertex="1" parent="1">
          <mxGeometry x="305" y="730" width="245" height="90" as="geometry" />
        </mxCell>
      </root>
    </mxGraphModel>
  </diagram>
</mxfile>
